<?xml version="1.0" encoding="UTF-8"?><svg id="Lag_1" xmlns="http://www.w3.org/2000/svg" viewBox="0 0 243.71 231.45"><defs><style>.cls-1{stroke-dasharray:0 4.6;}.cls-1,.cls-2,.cls-3,.cls-4{fill:none;stroke:#1d1d1b;stroke-miterlimit:10;}.cls-1,.cls-2,.cls-4{stroke-width:2.3px;}.cls-2{stroke-dasharray:0 0 4.65 4.65;}.cls-3{stroke-width:4.6px;}</style></defs><path class="cls-3" d="M137.38,18.97c1.83.5.91,1.61,2.03,3.15s1.54,1.23,2.66,2.76.81,1.76,1.93,3.3,1.47,1.29,2.58,2.82,1.14,1.52,2.26,3.06.97,1.65,2.09,3.19,1.19,1.49,2.31,3.02,1.25,1.44,2.37,2.98,1.04,1.59,2.16,3.13,1.48,1.28,2.6,2.82.18,2.22,1.3,3.76.83,1.75,1.95,3.29,1.07,1.57,2.19,3.11,1.86,1,2.98,2.54,1.02,1.61,2.13,3.15,1.25,1.44,2.37,2.98.59,1.92,1.71,3.46,1.89.98,3.01,2.52.5,1.99,1.62,3.53,2,.9,3.12,2.44.3,2.13,1.42,3.67.88,1.71,2,3.25,1.21,1.48,2.33,3.02,1.63,1.16,2.75,2.7.99,1.63,2.11,3.17.94,1.67,2.05,3.21.75,1.81,1.87,3.35,1.51,1.25,2.63,2.79,1.2,1.48,2.32,3.01,1.35,1.37,2.47,2.91.83,1.75,1.95,3.29,1.05,1.58,2.17,3.12.98,1.64,2.1,3.18,1.02,1.61,2.14,3.15.93,1.68,2.04,3.22,1.49,1.27,2.61,2.81,1.24,1.45,2.36,2.99.95,1.67,2.07,3.21,1.36,1.37,2.48,2.91.8,1.77,1.92,3.31,1.69,1.13,2.81,2.67,1.45,1.3,2.57,2.85-.04,2.38,1.08,3.93,1.76,1.08,2.88,2.63,2.71,1.27,2.36,3.15-1.56,1.21-3.14,2.15-1.41,1.21-2.99,2.15-2.21-.14-3.79.79-1.35,1.33-2.93,2.27-1.57.95-3.15,1.89-1.26,1.47-2.84,2.4-1.94.33-3.52,1.26-1.53,1.02-3.11,1.96-1.74.67-3.32,1.61-1.4,1.25-2.98,2.18-1.22,2.01-3,2.49-1.45-1.63-3.57-2.23c-1.06-.3-2.38-.3-3.73-.5-1.17-.17-2.43.39-3.71.41s-2.57-.81-3.79-.51-2.15,1.3-3.25,1.94c-1.02.6-1.9,1.37-2.78,2.35-.77.86-1.87,1.6-2.47,2.8-.51,1.02-.26,2.41-.62,3.71-.31,1.1-.91,2.2-1.09,3.52-.16,1.15-.26,2.61-.32,3.94-1.42,1.2-1.86.47-3.55,1.26s-1.59,1-3.28,1.79-1.99.14-3.68.93-1.79.58-3.48,1.37-1.51,1.18-3.2,1.97-1.45,1.3-3.14,2.09-1.86.43-3.55,1.22-1.28,1.67-2.97,2.46-1.85.45-3.54,1.24-1.88.38-3.57,1.17-1.58,1.03-3.28,1.82-1.58,1.47-3.43,1.17-1.32-1.17-2.71-2.47-1.45-1.23-2.84-2.53-1.57-1.1-2.96-2.4-.98-1.73-2.37-3.03-1.52-1.16-2.91-2.46-1.86-.8-3.25-2.09-.92-1.8-2.31-3.09-1.46-1.22-2.85-2.52-1.49-1.19-2.88-2.49-1.44-1.25-2.83-2.54-.86-1.86-2.25-3.16-2.28-.35-3.66-1.65-1.16-1.55-2.54-2.85-.92-1.8-2.31-3.1-1.59-1.08-2.98-2.38-1.65-1.02-3.04-2.31-1.08-1.63-2.47-2.93-1.25-1.45-2.64-2.75-1.99-.65-3.38-1.95-1.51-1.17-2.89-2.47-1.07-1.64-2.46-2.94-1.4-1.29-2.78-2.59-1.01-1.7-2.4-3-1.83-.83-3.22-2.13-1.08-1.63-2.47-2.93-1.55-1.12-2.94-2.42-1.6-1.07-2.99-2.37-.9-1.82-2.29-3.12-1.58-1.09-2.97-2.39-.96-1.76-2.35-3.06-2-.64-3.39-1.94-.78-1.95-2.17-3.25-1.87-.79-3.26-2.09-1.45-1.23-2.84-2.53-1.45-1.23-2.84-2.53-1.3-1.39-2.69-2.69-1.13-1.58-2.52-2.88-1.61-1.07-3-2.37-1.46-1.22-2.85-2.52-.91-1.81-2.3-3.11-1.97-.68-3.36-1.98-1.25-1.45-2.64-2.75-1.11-1.61-2.5-2.91-2.85-.51-2.76-2.42,1.52-.79,3.02-1.87,1.22-1.47,2.72-2.55,1.85-.59,3.35-1.67,1.18-1.53,2.68-2.61,1.46-1.14,2.96-2.21,1.37-1.26,2.87-2.34,1.43-1.18,2.93-2.26,1.51-1.06,3.01-2.15,1.58-.98,3.08-2.06,1.45-1.24,3.26-1.65.95,1.02,2.58,2.51c.85.77,1.87,1.6,3,2.35,1.05.7,2.03,1.74,3.22,2.18s2.63.23,3.89.16,1.85-.36,3.02-1.11c-.41-1.79-.82-1.28-1.84-2.81s-.24-2.05-1.27-3.57-1.34-1.31-2.37-2.83-1.11-1.46-2.13-2.98-1.02-1.52-2.05-3.04-1.33-1.32-2.36-2.84-.47-1.89-1.5-3.42-1.53-1.18-2.56-2.71-2.45-1.5-1.85-3.24,1.85-.59,3.63-1.22,1.89-.34,3.68-.98,1.5-1.43,3.29-2.06,1.99-.07,3.78-.71,1.92-.26,3.71-.9,1.49-1.48,3.28-2.12,1.76-.71,3.55-1.35,1.99-.06,3.78-.7,1.71-.86,3.5-1.5,1.76-.71,3.55-1.35,1.76-.71,3.55-1.35,1.76-.71,3.55-1.35,1.85-.48,3.64-1.12,1.74-.39,3.64-.45c2.02-.06,1.06.71,3,1.99,1.02.67,2.55.82,3.83,1.43s2.36,1.5,3.65,1.76c1.38.28,2.82.24,4.07-.15s2.62-.96,3.51-2.23c.65-.93,1.18-2.31,1.58-3.86.29-1.14.57-2.52.69-4.04.1-1.21.15-2.25.12-3.74,1.42-1.24,1.15-1.41,2.88-2.16s1.62-1,3.35-1.75,1.72-.78,3.45-1.53,1.99-.15,3.73-.9,1.84-.51,3.57-1.27,1.94-.5,3.47-1.61c1.69-1.23,1.51-2.07,3.33-1.57Z"/><path class="cls-3" d="M147.05,208.34c-1.07-1.56-.8-1.75-1.87-3.31s-1.17-1.49-2.24-3.05-1.1-1.54-2.17-3.1-.87-1.7-1.94-3.26-1.21-1.46-2.29-3.02-1.21-1.47-2.28-3.03-.96-1.64-2.03-3.2-1.18-1.49-2.25-3.05-.76-1.77-1.83-3.34-1.36-1.36-2.43-2.93-1.17-1.5-2.24-3.06-.77-1.77-1.84-3.33-1.18-1.49-2.25-3.05-1.08-1.56-2.15-3.12-1.24-1.45-2.31-3.01-1.07-1.56-2.14-3.12-.84-1.72-1.91-3.29-.96-1.64-2.03-3.21-1.03-1.59-2.1-3.15-1.4-1.34-2.47-2.9-1.11-1.54-2.18-3.1-.95-1.65-2.02-3.21-.95-1.65-2.02-3.21-1.19-1.48-2.26-3.04-.95-1.65-2.02-3.21-1.31-1.4-2.38-2.96-.81-1.74-1.88-3.3-1.13-1.53-2.2-3.09-1.12-1.53-2.19-3.09-1.05-1.58-2.13-3.14-.98-1.63-2.05-3.19-1.09-1.56-2.16-3.12-1.1-1.54-2.18-3.11-1.14-1.52-2.21-3.08-1.2-1.47-2.27-3.04-.93-1.66-2-3.23-1.01-1.61-2.09-3.17-.96-1.64-2.03-3.21-1.26-1.44-2.33-3.01-.97-1.64-2.05-3.21"/><line class="cls-4" x1="61.47" y1="82.86" x2="63.71" y2="82.34"/><polyline class="cls-2" points="67.62 80.02 68.2 79.55 72.18 79.51 75.5 77.72 79 76.42 82.48 75.07 86.12 74.12 89.64 72.89 93.03 71.3 96.36 69.55 99.67 67.75 103.36 66.93 107.04 66.11 110.61 65.01 113.77 62.79 117.52 62.16 121.08 60.99 124.6 59.75 127.82 57.71 131.4 56.6 134.93 55.38 138.41 54.03 141.56 51.8 144.92 50.12 148.91 50.08 151.48 48.66"/><line class="cls-4" x1="153.66" y1="47.91" x2="155.9" y2="47.38"/><polyline class="cls-1" points="41.37 122.96 44.26 120.29 47.43 117.98 50.37 115.38 53.69 113.23 56.5 110.48 59.41 107.83 62.79 105.77 65.72 103.15 68.76 100.66 71.69 98.03"/></svg>