<?xml version="1.0" encoding="UTF-8"?><svg id="Lag_1" xmlns="http://www.w3.org/2000/svg" viewBox="0 0 999.81 1102.45"><defs><style>.cls-1{fill:none;}.cls-1,.cls-2{stroke:#fff;stroke-miterlimit:10;stroke-width:4.6px;}.cls-2{fill:#fff;}</style></defs><path class="cls-1" d="M398.91,841.44c-3.07,0-3.07.3-6.13.3s-3.07-.02-6.13-.02-3.06.1-6.13.1-3.06-.04-6.13-.04-3.07-.38-6.13-.38-3.07.22-6.13.22-3.07.28-6.13.28-3.07-.33-6.13-.33-3.07.38-6.13.38-3.07.01-6.14.01-3.07-.08-6.14-.08-3.07-.1-6.14-.1c-2.09,0-4.14-.33-6.15-.62s-4.17-.38-6.13-.95-3.78-1.71-5.65-2.57-3.79-1.66-5.52-2.77-3.18-2.62-4.73-3.97-3.13-2.66-4.48-4.22-2.68-3.14-3.8-4.87-2.34-3.44-3.2-5.32-1.01-4-1.6-6-1.55-3.85-1.84-5.92-.44-4.1-.44-6.2q0-3.07,0-6.13c0-3.07.55-3.07.55-6.13s-.35-3.06-.35-6.13.07-3.06.07-6.13.19-3.07.19-6.13-.07-3.07-.07-6.13.13-3.07.13-6.13-.54-3.07-.54-6.13.56-3.07.56-6.13-.44-3.07-.44-6.14-.02-3.07-.02-6.14.32-3.07.32-6.14c0-2.09.09-4.14.37-6.15s.48-4.14,1.05-6.1,1.56-3.84,2.41-5.7,2-3.58,3.11-5.31,1.92-3.71,3.27-5.27,3.12-2.72,4.68-4.07,2.98-2.9,4.71-4.02,3.52-2.21,5.4-3.07,3.91-1.34,5.91-1.92,3.96-1.17,6.02-1.46,4.1-.36,6.19-.36c3.07,0,3.07.24,6.13.24s3.07-.02,6.13-.02,3.06.03,6.13.03,3.06-.22,6.13-.22,3.07-.02,6.13-.02,3.07.09,6.13.09,3.07.09,6.13.09,3.07-.14,6.13-.14,3.07.08,6.13.08,3.07-.02,6.14-.02,3.07-.11,6.14-.11,3.07.21,6.14.21c2.09,0,4.15,0,6.17.29s4.03.9,5.99,1.48,4,1.1,5.86,1.96,3.63,1.97,5.36,3.08,3.29,2.46,4.84,3.81,2.95,2.83,4.3,4.39,3.02,2.88,4.13,4.62,2.07,3.59,2.93,5.48,1.14,3.95,1.72,5.95,1.12,3.92,1.41,5.99.34,4.05.34,6.14c0,3.07.55,3.07.55,6.13s-.14,3.07-.14,6.13.09,3.06.09,6.13-.55,3.06-.55,6.13.29,3.07.29,6.13,0,3.07,0,6.13-.14,3.07-.14,6.13.31,3.07.31,6.13-.25,3.07-.25,6.13.12,3.07.12,6.14-.04,3.07-.04,6.14.08,3.07.08,6.14c0,2.09.08,4.19-.21,6.21s-.78,4.11-1.35,6.07-1.47,3.9-2.32,5.76-2.14,3.53-3.25,5.26-2.11,3.56-3.46,5.12-2.7,3.16-4.26,4.51-3.29,2.53-5.02,3.65-3.64,1.94-5.52,2.81-3.71,1.85-5.71,2.43-4.07.58-6.14.88-4.05.38-6.14.38Z"/><path class="cls-2" d="M368.06,839.56c.01-9.35.02-18.71.02-28.06,0-4.1,1.25-10.51,0-14.38-1.22-3.79-12.36-1.79-15.79-1.77-.12-8.03.03-16.04.02-24.07,0-.19,0-.41.14-.55.15-.16.4-.18.62-.18,5-.02,10.01-.05,15.01-.07-.27-8.63,2.42-17.32,7.52-24.28,8.02-10.96,21.63-17.13,35.16-15.83.69.07,1.45.18,1.92.69.43.46.53,1.14.59,1.77.48,4.64.52,9.33.11,13.98-5.69,1.04-11.45,2.49-16.25,5.73s-8.52,8.55-8.49,14.34c4.55-.01,9.1-.02,13.66-.03.14,8.85.05,17.69.02,26.54-1.71-.1-3.42-.21-5.14-.31-2.3-.14-4.61-.28-6.89-.03-.97.1-2.08.38-2.51,1.26-.22.44-.21.95-.2,1.45.13,7.4.26,14.79.39,22.19.07,3.91.14,7.81.2,11.72.05,3.03.8,7.06-.13,9.91-6.66.05-13.32,0-19.98,0Z"/></svg>