<?xml version="1.0" encoding="UTF-8"?><svg id="Lag_1" xmlns="http://www.w3.org/2000/svg" viewBox="0 0 999.81 1102.45"><defs><style>.cls-1{fill:none;stroke:#fff;stroke-miterlimit:10;stroke-width:4.6px;}.cls-2{fill:#fff;stroke-width:0px;}</style></defs><path class="cls-1" d="M410.15,845.13c-2.55,0-3.82-.06-5.09-.09s-2.55-.15-5.09-.15-3.83-.08-5.1-.07-2.54.54-5.08.54-3.83-.19-5.1-.26-2.54-.61-5.08-.61-3.81.54-5.08.61-2.56-.3-5.1-.3-3.83.41-5.1.36-2.54-.49-5.09-.49-3.83.31-5.1.32-2.55,0-5.09,0-3.81.21-5.09.24-2.55-.11-5.1-.11-3.83.12-5.11.08-2.54-.38-5.09-.38-3.84-.11-5.12,0-2.53.11-5.08.11c-1.82,0-3.6-.02-5.36-.31s-3.66-.37-5.35-.91-3.13-1.78-4.68-2.68-3.24-1.6-4.68-2.65-2.93-2.11-4.18-3.37-2.05-2.92-3.11-4.37-2.37-2.73-3.22-4.3-1.21-3.35-1.77-5.07-.94-3.41-1.23-5.19-.34-3.49-.34-5.32c0-2.55-.16-3.82-.18-5.09s-.09-2.54-.09-5.09.05-3.82.13-5.09.35-2.55.35-5.1-.38-3.81-.43-5.09.02-2.55.02-5.1.15-3.82.18-5.09.12-2.55.12-5.1-.03-3.82-.04-5.1-.27-2.54-.27-5.09.19-3.83.11-5.11-.66-2.54-.66-5.08.07-3.83.13-5.11.55-2.53.55-5.08-.16-3.82-.23-5.1-.27-2.55-.27-5.1.37-3.81.47-5.08.31-2.56.31-5.11c0-1.82.15-3.54.44-5.27s.5-3.52,1.05-5.21.94-3.49,1.67-5.11,1.89-3.04,2.94-4.49,2.23-2.77,3.52-4.03,2.36-2.78,3.81-3.84,2.99-2.06,4.59-2.9,3.31-1.46,5.03-2.02,3.48-.94,5.28-1.28,3.57-.53,5.4-.53c2.55,0,3.82.33,5.09.35s2.55.05,5.1.05,3.83-.48,5.1-.44,2.54.56,5.08.56,3.81-.52,5.08-.55,2.56.51,5.1.51,3.83-.45,5.1-.4,2.54.61,5.08.61,3.82-.18,5.09-.13,2.55-.27,5.1-.27,3.82.53,5.09.57,2.55-.2,5.1-.2,3.83.25,5.1.21,2.54.01,5.09.01,3.82-.51,5.09-.58,2.56-.22,5.1-.22,3.83.04,5.1.08,2.54.14,5.09.14c1.83,0,3.58.44,5.32.75s3.53.67,5.22,1.22,3.54.88,5.18,1.59,3.18,1.77,4.63,2.82,2.97,2.13,4.21,3.45,2.29,2.83,3.35,4.28,1.61,3.22,2.47,4.81,1.74,3.12,2.29,4.84,1.35,3.38,1.57,5.19.19,3.6.19,5.42c0,2.55.05,3.82.06,5.1s-.06,2.55-.06,5.09-.14,3.82-.11,5.09,0,2.55,0,5.09-.22,3.83-.21,5.1.54,2.54.54,5.08-.38,3.82-.44,5.09.19,2.55.19,5.09-.47,3.82-.48,5.09.25,2.55.25,5.1-.26,3.83-.21,5.1.13,2.54.13,5.09,0,3.82-.02,5.09-.14,2.55-.14,5.1.41,3.83.38,5.1-.02,2.54-.02,5.09-.16,3.82-.1,5.1.24,2.55.24,5.1c0,1.82,0,3.66-.31,5.4s-1.22,3.42-1.77,5.11-.85,3.54-1.63,5.15-2.1,2.93-3.15,4.37-2.01,2.99-3.3,4.23-2.79,2.25-4.24,3.3-2.94,2.01-4.55,2.78-3.29,1.31-5,1.87-3.36,1.22-5.13,1.6-3.51.55-5.34.55Z"/><path class="cls-1" d="M396.08,766.68c0,1.68-.1,3.33-.38,4.94s-.69,3.26-1.2,4.82-1.13,3.12-1.88,4.58-1.74,2.81-2.71,4.14-1.98,2.64-3.15,3.8-2.46,2.19-3.8,3.17-2.71,1.87-4.18,2.66-2.91,1.57-4.5,2.08-3.2.78-4.86,1.02-3.27.45-4.95.45-3.32-.29-4.93-.55-3.24-.67-4.8-1.18-3.18-.99-4.67-1.7-2.92-1.59-4.26-2.57-2.63-2.04-3.79-3.23-2.31-2.41-3.29-3.75-1.82-2.79-2.56-4.27-1.3-3.05-1.82-4.63-.96-3.17-1.22-4.82-.32-3.28-.32-4.96.23-3.32.51-4.93.75-3.23,1.25-4.78,1.06-3.14,1.78-4.61,1.48-2.97,2.45-4.31,2.11-2.56,3.3-3.71,2.5-2.16,3.84-3.14,2.65-1.99,4.13-2.75,3.03-1.3,4.62-1.82,3.16-.97,4.81-1.24,3.27-.31,4.95-.31,3.33.14,4.94.41,3.26.65,4.82,1.16,3.15,1.1,4.63,1.81,2.89,1.64,4.22,2.61,2.58,2.07,3.75,3.25,2.3,2.39,3.28,3.73,1.78,2.78,2.5,4.28,1.27,3.04,1.78,4.62,1.04,3.13,1.34,4.78.35,3.26.35,4.94Z"/><path class="cls-2" d="M416.34,721.89c0,1.8-.76,3.42-1.94,4.6s-2.81,1.9-4.6,1.9-3.41-.73-4.59-1.91-1.94-2.79-1.94-4.59.75-3.41,1.93-4.59,2.81-1.88,4.6-1.88,3.44.7,4.62,1.87,1.92,2.81,1.92,4.6Z"/><path class="cls-1" d="M416.34,721.89c0,1.8-.76,3.42-1.94,4.6s-2.81,1.9-4.6,1.9-3.41-.73-4.59-1.91-1.94-2.79-1.94-4.59.75-3.41,1.93-4.59,2.81-1.88,4.6-1.88,3.44.7,4.62,1.87,1.92,2.81,1.92,4.6Z"/></svg>