<?xml version="1.0" encoding="UTF-8"?><svg id="Lag_1" xmlns="http://www.w3.org/2000/svg" viewBox="0 0 249.36 237.7"><defs><style>.cls-1{stroke-width:4.6px;}.cls-1,.cls-2{fill:none;stroke:#1d1d1b;stroke-miterlimit:10;}.cls-2{stroke-width:2.3px;}</style></defs><path class="cls-1" d="M233.28,120.28c0,1.7.58,3.41.5,5.1s-.24,3.4-.4,5.08-.71,3.34-.95,5.01-.55,3.35-.87,5-.86,3.28-1.25,4.92-.35,3.42-.82,5.04-1.42,3.11-1.97,4.7-.94,3.27-1.56,4.83-1.13,3.21-1.84,4.75-1.54,3.03-2.31,4.53-1.41,3.1-2.25,4.57-2.15,2.66-3.07,4.08-1.49,3.09-2.47,4.46-2.52,2.34-3.57,3.67-1.75,2.94-2.86,4.22-2.24,2.55-3.4,3.78-2.45,2.35-3.67,3.52-2.27,2.55-3.55,3.66-3.01,1.68-4.34,2.73-2.42,2.41-3.8,3.4-2.82,1.89-4.24,2.8-3.06,1.48-4.53,2.33-2.63,2.24-4.14,3.02-3.21,1.15-4.75,1.86-3.21,1.07-4.79,1.7-3.09,1.36-4.69,1.92-3.13,1.31-4.76,1.79-3.33.62-4.98,1.02-3.27.81-4.94,1.13-3.28.83-4.97,1.07-3.33.73-5.02.89-3.38.27-5.08.35-3.39.02-5.09.02-3.41.11-5.1.03-3.4-.32-5.08-.47-3.37-.49-5.04-.73-3.32-.74-4.98-1.06-3.28-.84-4.92-1.23-3.27-.85-4.89-1.33-3.19-1.1-4.79-1.65-3.44-.49-5-1.12-3.11-1.38-4.65-2.08-2.89-1.81-4.39-2.59-3.07-1.44-4.54-2.29-3.1-1.44-4.52-2.36-2.63-2.17-4.01-3.15-2.85-1.86-4.18-2.91-2.57-2.22-3.84-3.33-2.57-2.21-3.8-3.38-2.19-2.59-3.36-3.82-2.45-2.34-3.56-3.62-2.01-2.72-3.06-4.05-2.53-2.34-3.51-3.72-1.82-2.87-2.74-4.3-1.28-3.18-2.13-4.65-2.16-2.67-2.94-4.17-1.48-3.05-2.18-4.59-1.26-3.14-1.89-4.72-1.1-3.2-1.65-4.8-.97-3.23-1.45-4.86-1.17-3.18-1.57-4.83-.65-3.32-.97-4.99-1.01-3.27-1.25-4.95.25-3.43.09-5.13-.49-3.34-.57-5.04-.5-3.37-.5-5.07.64-3.38.72-5.06-.11-3.4.05-5.08.64-3.33.88-5,.56-3.33.87-4.99.65-3.32,1.04-4.96.77-3.29,1.24-4.91.65-3.35,1.2-4.95,1.09-3.22,1.72-4.79,1.18-3.2,1.88-4.73,1.73-2.93,2.51-4.44,1.8-2.87,2.64-4.34,1.39-3.12,2.3-4.54,2.3-2.53,3.28-3.91,1.96-2.75,3-4.08,1.9-2.81,3.01-4.09,2.04-2.73,3.21-3.95,2.5-2.3,3.73-3.47,2.6-2.18,3.88-3.29,2.3-2.54,3.63-3.59,2.77-1.97,4.15-2.95,2.71-2.06,4.13-2.98,3.11-1.42,4.57-2.27,2.75-2.04,4.26-2.81,3.3-.96,4.84-1.67,3.12-1.27,4.7-1.9,3.13-1.23,4.73-1.79,3.13-1.26,4.76-1.74,3.3-.72,4.95-1.12,3.2-1.15,4.87-1.47,3.38-.23,5.07-.47,3.27-1.11,4.97-1.27,3.41.2,5.11.12,3.37-.67,5.07-.67,3.4.47,5.08.55,3.35.59,5.03.74,3.36.35,5.03.59,3.46-.12,5.12.19,3.35.63,4.99,1.03,3.23,1.07,4.85,1.55,3.08,1.47,4.68,2.02,3.29.84,4.86,1.47,3.06,1.45,4.59,2.16,3.32.93,4.82,1.71,2.89,1.79,4.36,2.64,3,1.6,4.43,2.51,2.52,2.32,3.9,3.3,2.78,1.91,4.11,2.96,2.56,2.2,3.84,3.31,2.86,1.88,4.09,3.05,2.34,2.46,3.51,3.68,2.24,2.54,3.35,3.82,2.38,2.43,3.43,3.76,1.71,2.95,2.7,4.33,2.12,2.65,3.04,4.07,2.11,2.69,2.96,4.16,1.02,3.3,1.8,4.8,1.94,2.81,2.64,4.36,1.64,2.99,2.27,4.57.81,3.32,1.37,4.92,1.44,3.1,1.92,4.73.36,3.41.76,5.06.83,3.27,1.15,4.94.91,3.28,1.15,4.96.63,3.34.79,5.03-.12,3.4-.04,5.1-.13,3.38-.13,5.08Z"/><path class="cls-1" d="M235.78,115.07c0,1.7-.2,3.39-.28,5.07s-.21,3.38-.37,5.06-.15,3.4-.39,5.06-.38,3.38-.69,5.04-.5,3.38-.9,5.02-1.17,3.21-1.65,4.83-1.03,3.23-1.58,4.83-.91,3.29-1.54,4.85-1.5,3.05-2.2,4.59-1.64,2.97-2.42,4.47-1.24,3.19-2.09,4.65-1.72,2.93-2.64,4.35-2.38,2.47-3.37,3.85-1.38,3.2-2.43,4.53-2.17,2.62-3.28,3.9-2.63,2.19-3.8,3.41-2.51,2.26-3.73,3.43-2,2.83-3.28,3.94-2.65,2.13-3.98,3.18-2.98,1.67-4.36,2.65-2.43,2.45-3.86,3.37-2.9,1.77-4.37,2.62-3.12,1.36-4.63,2.13-3.04,1.48-4.58,2.19-3.16,1.2-4.73,1.83-2.98,1.69-4.58,2.25-3.35.64-4.98,1.12-3.19,1.13-4.85,1.53-3.26.93-4.93,1.25-3.35.5-5.03.74-3.34.65-5.03.81-3.41-.21-5.11-.13-3.37.58-5.07.58-3.38-.69-5.06-.77-3.42.28-5.1.12-3.38-.34-5.05-.57-3.34-.63-5-.94-3.4-.36-5.04-.76-3.12-1.47-4.74-1.95-3.37-.57-4.97-1.13-3.18-1.21-4.74-1.83-2.98-1.64-4.52-2.34-3.36-.85-4.86-1.63-2.8-1.96-4.27-2.8-2.74-2-4.16-2.92-2.9-1.73-4.28-2.71-2.89-1.79-4.22-2.84-2.44-2.36-3.72-3.47-2.56-2.2-3.79-3.37-2.59-2.2-3.76-3.42-2.53-2.28-3.64-3.56-2.19-2.6-3.24-3.93-1.99-2.75-2.98-4.13-2.07-2.71-2.99-4.13-1.71-2.94-2.56-4.41-1.55-3.02-2.33-4.53-1.32-3.12-2.02-4.67-1.22-3.15-1.85-4.73-1.2-3.15-1.75-4.75-.96-3.23-1.43-4.86-1.59-3.07-1.99-4.72-.68-3.33-1-5-.2-3.4-.44-5.08-.61-3.33-.77-5.02-.62-3.35-.7-5.05.24-3.39.24-5.1-.14-3.4-.06-5.09.32-3.39.48-5.07.31-3.39.54-5.06.84-3.3,1.15-4.96.49-3.36.88-5,1.05-3.23,1.52-4.85.44-3.42.99-5.02,1.29-3.15,1.92-4.72,1.86-2.89,2.56-4.43.93-3.31,1.7-4.82,1.64-2.98,2.48-4.44,1.84-2.85,2.75-4.27,1.98-2.75,2.96-4.13,2.07-2.67,3.12-4,1.92-2.8,3.03-4.08,2.33-2.46,3.5-3.69,2.07-2.73,3.3-3.89,2.95-1.79,4.23-2.9,2.44-2.34,3.77-3.39,2.46-2.37,3.84-3.35,3.11-1.44,4.54-2.35,2.7-2.06,4.17-2.91,3.08-1.41,4.59-2.19,3.03-1.47,4.57-2.18,3.07-1.39,4.64-2.02,3.12-1.28,4.72-1.83,3.1-1.41,4.73-1.89,3.25-.97,4.9-1.37,3.28-.89,4.95-1.21,3.39-.29,5.07-.53,3.37-.2,5.07-.36,3.34-.68,5.04-.76,3.38.4,5.09.4,3.38,0,5.06.07,3.4-.09,5.08.07,3.41.08,5.08.32,3.33.7,4.99,1.02,3.29.85,4.93,1.25,3.41.4,5.03.87,3.22,1.12,4.81,1.68,3.26,1.01,4.82,1.64,2.96,1.71,4.5,2.41,3.26,1.07,4.76,1.84,2.7,2.14,4.16,2.98,2.84,1.81,4.27,2.73,2.82,1.84,4.2,2.82,2.85,1.83,4.18,2.87,2.5,2.27,3.78,3.38,2.8,1.94,4.03,3.11,2.16,2.62,3.33,3.85,2.81,2.02,3.92,3.3,1.82,2.89,2.87,4.22,2.51,2.36,3.49,3.74,1.58,3.03,2.5,4.45,1.46,3.06,2.31,4.53,1.66,2.93,2.44,4.44,2.1,2.74,2.81,4.28,1.42,3.09,2.05,4.66,1,3.25,1.55,4.85.59,3.35,1.07,4.98,1.22,3.16,1.62,4.81.59,3.32.91,4.99,1.16,3.23,1.4,4.92.22,3.39.38,5.08.44,3.36.52,5.06-.13,3.39-.13,5.09Z"/><path class="cls-1" d="M123.16,13.56q0,2.57,0,5.13c0,2.57-.03,2.57-.03,5.14s-.02,2.57-.02,5.14,0,2.57,0,5.14"/><path class="cls-1" d="M123.08,47.29c0,2.53-.09,2.53-.09,5.06s.09,2.53.09,5.06.14,2.53.14,5.06-.07,2.53-.07,5.05.11,2.53.11,5.06,0,2.53,0,5.05-.13,2.53-.13,5.06-.06,2.53-.06,5.06,0,2.53,0,5.06.07,2.53.07,5.06.05,2.53.05,5.06.07,2.53.07,5.06-.12,2.53-.12,5.06-.01,2.53-.01,5.07,2.3,3.99.05,5.14-1.91-1.65-3.78-3.23-1.82-1.64-3.68-3.22-1.96-1.47-3.83-3.05-1.87-1.58-3.74-3.16-1.72-1.75-3.59-3.33-2.05-1.37-3.91-2.95-1.86-1.59-3.73-3.17-1.75-1.72-3.62-3.3-1.82-1.64-3.69-3.22-2.03-1.39-3.9-2.98-1.85-1.61-3.72-3.19"/><path class="cls-2" d="M76.47,26.18q1.39,1.98,2.78,3.96t2.77,3.97"/><path class="cls-2" d="M43.37,53.79c2.48,1.91,2.49,1.9,4.97,3.82s2.47,1.93,4.95,3.84"/><path class="cls-1" d="M22.48,110.24c2.29,0,2.29-.03,4.58-.03s2.29.03,4.58.03,2.29-.04,4.58-.04,2.29.04,4.59.04,2.29,0,4.59,0"/><path class="cls-2" d="M39.38,172.9c2.1-1.09,2.1-1.08,4.2-2.16s2.1-1.08,4.2-2.17,2.09-1.1,4.19-2.19"/><path class="cls-2" d="M72.58,205.61c1.37-1.84,1.38-1.83,2.75-3.67s1.36-1.84,2.73-3.68"/><path class="cls-1" d="M123.11,194.05q0,2.77,0,5.54c0,2.77.04,2.77.04,5.54s-.04,2.77-.04,5.54.06,2.77.06,5.55-.03,2.77-.03,5.55"/><path class="cls-2" d="M191.07,201.94c-1.97-1.97-1.98-1.96-3.94-3.93s-1.95-1.98-3.92-3.96"/><path class="cls-2" d="M220.78,169.67c-2.61-1.39-2.59-1.41-5.2-2.8s-2.61-1.39-5.21-2.78"/><path class="cls-1" d="M235.66,120.3c-2.37,0-2.37-.04-4.74-.04s-2.37.07-4.74.07-2.37-.07-4.74-.07-2.37,0-4.74,0-2.37.08-4.75.08-2.38-.07-4.75-.07-2.38,0-4.75,0"/><path class="cls-2" d="M210.36,57.42c-2.31,2.01-2.3,2.02-4.61,4.03s-2.32,2-4.63,4.01"/><path class="cls-2" d="M174.73,25.85q-1.6,2.15-3.21,4.3c-1.6,2.15-1.62,2.14-3.23,4.29"/></svg>