<?xml version="1.0" encoding="UTF-8"?><svg id="Layer_1" xmlns="http://www.w3.org/2000/svg" viewBox="0 0 841.89 1190.55"><defs><style>.cls-1{fill-rule:evenodd;}.cls-1,.cls-2{fill:#fff;stroke-width:0px;}</style></defs><path class="cls-1" d="M429.73,122.85c148.15,2.04,274.79,100.16,308.29,245.19,55.63,241.11-175.52,450.93-410.14,371.57C93.27,660.16,36.92,352.85,227.99,195.19c58.12-47.99,126.29-71.36,201.29-72.34h.44ZM429.46,133.78c-62.47.8-119,17.06-170.98,52.17-203.6,137.57-169.74,448.09,58.83,538.2,225.37,88.87,460.17-109.22,411.74-346.24-29.42-143.62-153.65-242.26-299.58-244.13Z"/><path class="cls-1" d="M382.63,383.68c-20.35,10.22-85.05,39.1-129.4,17.6-27.28-13.15-51.19-26.13-67.99-35.55,18.22-6.22,43.99-14.66,73.32-22.66,47.46-13.15,105.93,26.93,124.06,40.61Z"/><path class="cls-1" d="M397.65,344.67c-15.46-13.42-61.77-57.23-59.19-101.4,1.6-27.19,4.09-51.54,6.13-68.7,11.46,12.98,27.28,31.55,44.08,53.06,27.19,34.93,14.04,97.22,8.98,117.04Z"/><path class="cls-1" d="M395.6,403.77c-6.31,13.33-27.73,54.12-58.92,61.05-19.29,4.27-36.7,7.29-49.06,9.24,6.75-10.49,16.62-25.24,28.26-41.15,18.93-25.77,64.88-28.88,79.72-29.15Z"/><path class="cls-1" d="M306.47,298.55c-12.17-.27-50.03-2.75-65.59-23.91-9.69-13.06-17.77-25.15-23.37-33.77,10.22,1.6,24.53,4.09,40.35,7.55,25.68,5.6,43.37,39.1,48.61,50.12Z"/><path class="cls-1" d="M405.2,226.65c-6.66-6.58-26.66-28.08-24.17-48.34,1.51-12.44,3.38-23.55,4.8-31.37,4.89,6.31,11.64,15.29,18.75,25.68,11.46,16.8,3.55,45.15.62,54.03Z"/><path class="cls-1" d="M502.83,524.13c20.62,4.89,30.17,4.59,49.37,5.13,43.55,1.33,52.26-6.58,95.36,15.02,11.37,5.69,34.89,23.52,44.48,35.73,14.79,20.27,17.14,4.84,9.82,6.04-4.35.71,7.38-4.8,6.67-9.15-6.22-21.86-34.75-37.33-53.77-46.83-19.37-9.69-32.88-14.04-45.23-15.82,23.99-8.71,40.35-11.46,63.81-12.97,12.38-.1-6.26.26,7.25-.63l12.79-.23c14.42.23,22.26,2.11,34.85,5.63,10.37,2.9,6.16-1.38,7.67-5.47,2.44-10.05,7.85-11.92-21.68-14.58-37.38-3.36-81.23,1.87-119,16.62-31.28,12.17-73.94,15.91-105.13,2.4-16.79-7.2-27.46-21.51-35.64-51.46-10.84-39.9-8.09-51.99,19.91-83.63,31.55-35.73,74.21-47.1,121.31-51.1,24.7-2.04,45.26-.4,65.7,4.04,13.77,3.02,34.85,11.28,49.03,16.75,14.19,5.47,11.29,4.18,14.04-.98,2.22-4.09,2.33-11.33-15.7-18.15-34.37-13.01-78.15-20.51-114.41-17.49-21.6,1.78-41.15,5.07-58.65,10.4,1.69-3.11,3.46-6.4,5.24-10.04,16.79-33.24,37.5-104.42,32.17-139.97-.62-4.35-2.49-6.66-6.58-8.09-4.27-1.16-8.53,1.42-9.69,5.69-.44,1.95.84,12.93-.53,29.33-1.84,21.91-7.82,49.06-16.08,73.85-20.09,59.81-27.55,48.61-65.23,82.47-11.46,10.4-21.77,22.93-31.1,38.04-1.33-13.15-2.31-67.1-3.11-121.67-.36-26.66-.43-109.16-.43-131.83,0-4.03-5-7.88-9.53-7.96-4.53.09-9.57,3.69-9.86,7.71-1.5,20.92.18,105.42-.18,132.08-.8,54.57-1.78,108.51-3.02,121.67-9.33-15.11-19.64-27.64-31.19-38.04-37.59-33.86-45.15-22.66-65.23-82.47-8.27-24.79-13.73-51.99-16.09-73.85-1.82-16.91-.43-28.27-.7-30.25-.87-6.4-5.26-5.92-9.52-4.76-4.09,1.42-5.95,3.73-6.58,8.09-5.24,35.55,15.38,106.73,32.17,139.97,1.78,3.64,3.55,6.93,5.33,10.04-17.6-5.33-37.06-8.62-58.74-10.4-36.26-3.02-74.76.73-108.51,15.29-21.69,9.35-28.32,18.72-26.1,22.81,2.75,5.15,2,5.92,18.55-1.48,13.88-6.2,35.37-14.75,49.15-17.77,20.53-4.44,40.97-5.07,65.59-3.02,47.19,4,89.76,15.37,121.31,51.1,28.08,31.64,30.75,43.72,19.91,83.63-8.09,29.95-18.84,44.26-35.64,51.46-31.11,13.51-73.76,9.77-105.13-2.4-37.68-14.75-78.56-22.49-119-16.62-11.81,1.72-28.89,3.61-25.06,15.94,1.51,4.09.52,9.21,9.2,4.97,11.9-5.82,25-7.51,38.44-7.24l.86.02c5.73.31,6.52.29,17.53,1.6,23.37,1.51,39.73,4.26,63.81,12.97-12.44,1.78-25.95,6.13-45.23,15.82-19.02,9.51-47.55,24.97-53.77,46.83-.71,4.35,2.22,8.44,6.58,9.15,4.35.71-2.55,17.92,5.92-5.12,11.83-25.33,37-30.96,48.38-36.65,43.1-21.6,51.9-13.69,95.36-15.02,19.2-.54,112.92-12.71,121.78-24.96-6.53,4.95,15.34,4.02,71.74,19.83Z"/><path class="cls-1" d="M476.74,383.68c20.35,10.22,85.14,39.1,129.4,17.6,27.37-13.15,51.28-26.13,67.99-35.55-18.13-6.22-43.99-14.66-73.23-22.66-47.46-13.15-105.94,26.93-124.15,40.61Z"/><path class="cls-1" d="M461.81,344.67c15.46-13.42,61.67-57.23,59.1-101.4-1.6-27.19-4.09-51.54-6.13-68.7-11.46,12.98-27.28,31.55-44.08,53.06-27.2,34.93-14.04,97.22-8.88,117.04Z"/><path class="cls-1" d="M463.86,403.77c6.22,13.33,27.64,54.12,58.92,61.05,19.2,4.27,36.62,7.29,48.97,9.24-6.75-10.49-16.53-25.24-28.26-41.15-18.93-25.77-64.87-28.88-79.63-29.15Z"/><path class="cls-1" d="M552.99,298.55c12.08-.27,49.95-2.75,65.59-23.91,9.6-13.06,17.69-25.15,23.29-33.77-10.13,1.6-24.44,4.09-40.35,7.55-25.68,5.6-43.37,39.1-48.52,50.12Z"/><path class="cls-1" d="M454.17,226.65c6.75-6.58,26.66-28.08,24.26-48.34-1.6-12.44-3.46-23.55-4.89-31.37-4.89,6.31-11.64,15.29-18.66,25.68-11.55,16.8-3.64,45.15-.71,54.03Z"/><path class="cls-1" d="M305.22,419.94c-7.02,9.95-30.39,39.73-56.7,40.7-16.17.62-30.75.44-40.97.27,7.02-7.55,17.15-17.95,28.88-29.15,19.2-18.04,56.79-13.77,68.79-11.82Z"/><path class="cls-1" d="M554.15,419.94c7.02,9.95,30.39,39.73,56.7,40.7,16.18.62,30.75.44,41.06.27-7.11-7.55-17.15-17.95-28.97-29.15-19.11-18.04-56.79-13.77-68.78-11.82Z"/><path class="cls-1" d="M405.06,471.1c10.8,39.9,8.14,51.99-19.83,83.63-31.43,35.73-73.84,47.1-120.86,51.1-24.53,2.05-44.89,1.42-65.34-3.02-13.72-3.02-34.8-12.41-48.97-17.77-2.16-.82,10.4,21.74,12.26,22.42,34.41,12.56,67.25,17.21,103.37,14.19,21.6-1.78,41-5.06,58.53-10.4-1.77,3.11-3.54,6.4-5.31,10.04-16.73,33.24-24.12,54.78-30.07,93.79-.66,4.35,19.25,10.05,23.32,11.47,4.25,1.15-5.18,1.51-4.12-2.76.44-1.95-3.32,1.87-4.57.92-5.8-4.37,11.7-56.35,13.72-62.42,20.01-59.81,29.96-50.44,67.42-84.29,11.51-10.4,21.78-22.93,31.08-38.04,1.24,13.15,2.21,67.1,3.01,121.66.35,26.66-1.07,66.23-.94,88.11.02,4.03,4.67,1.51,9.18,1.6,4.51-.09,11.2,2.3,11.07-1.72-.75-23.5.26-61.32.62-87.98.8-54.57,1.77-108.51,3.1-121.66,9.3,15.11,19.57,27.64,30.99,38.04,37.54,33.86,44.98,22.66,64.99,82.47,8.24,24.8,12.68,37.33,14.98,59.2.62,5.96,16.27-.71,15.55-5.05-5.03-30.29-13.09-60.1-29.82-93.33-1.77-3.65-3.54-6.94-5.23-10.04,17.44,5.33,36.92,8.62,58.44,10.4,36.12,3.02,68.5-2.59,100.08-13.01,1.32-.44,12.77-10.99,10.56-15.08-2.74-5.15,9.27-12.23,1.79-8.89-15.88,7.08-20.62,12.83-45.75,18.14-20.39,4.31-40.73,5.07-65.34,3.02-46.93-4-89.43-15.37-120.86-51.1-27.89-31.64-30.64-43.73-19.83-83.63,8.14-29.95-55.25-29.95-47.19,0Z"/><path class="cls-1" d="M199.62,500.81s79.27,180.08,232.14,176.41c152.87-3.67,237.4-178.86,237.4-178.86l13.35-1.22s-80.48,194.75-253.17,194.34c-172.69-.4-244.68-191.49-244.68-191.49"/><path class="cls-1" d="M307.37,529.12s43.47,63.51,118.18,63.51,120-67.83,120-67.83l15.4,1.3s-39.85,83.38-133.58,82.95c-93.73-.43-141.28-80.35-141.28-80.35"/><path class="cls-2" d="M123.31,892.5c0-27.95,15.17-43.54,39.99-43.54,5.86,0,10.57.6,13.1,1.08h15.4v27.59h-14.25l-2.18-12.24c-2.18-.84-5.63-1.56-9.77-1.56-11.15,0-19.08,7.8-19.08,27.71s5.4,29.27,17.01,29.27c4.02,0,6.21-.36,8.5-1.08v-14.75h-6.89v-12.24h33.55v12.35h-2.3c-1.61,0-3.22,2.16-3.22,3.6v25.31h-11.15s-1.03-2.52-3.22-2.52c-4.14,2.16-9.65,3.6-16.66,3.6-25.17,0-38.84-14.99-38.84-42.58Z"/><path class="cls-2" d="M205.24,902.81c0-20.27,12.3-32.99,31.49-32.99s28.61,9.84,28.61,31.55c0,2.52-.23,4.68-.23,5.4h-39.19c.8,10.56,5.06,15.23,13.44,15.23,6.89,0,9.77-2.52,12.53-6.12h11.15v13.07c-5.17,3.24-12.41,6-25.63,6-22.06,0-32.18-12.36-32.18-32.15ZM245.69,895.74c-.57-9.72-3.22-13.43-8.96-13.43s-9.54,3.84-10.57,13.43h19.54Z"/><path class="cls-2" d="M272.47,902.81c0-20.27,14.25-32.99,32.87-32.99s32.64,12.71,32.64,32.99-14.13,32.15-32.64,32.15-32.87-12-32.87-32.15ZM317.28,902.93c0-13.08-5.06-19.19-11.95-19.19s-12.07,6.12-12.07,19.19,5.06,18.95,12.07,18.95,11.95-6,11.95-18.95Z"/><path class="cls-2" d="M341.19,940.84c0-7.2,5.63-11.16,10.8-13.19-2.99-1.68-5.17-4.92-5.17-9.12,0-5.4,3.1-9.36,7.24-12.11-5.4-3.36-8.39-8.76-8.39-15.83,0-12.83,10-20.75,25.97-20.75,3.33,0,6.55.36,9.42,1.08h21.26v12.83h-2.99c-1.03,0-2.3.96-2.53,1.92.46,1.44.69,3.24.69,4.92,0,12.71-9.88,20.15-25.86,20.15-4.14,0-7.81-.48-11.03-1.44-.12.72-.23,2.04-.23,2.64,0,2.64,1.26,3.96,4.48,3.96h18.62c12.99,0,18.96,4.92,18.96,16.07,0,13.79-9.42,23.39-33.56,23.39-20.34,0-27.69-5.76-27.69-14.51ZM384.16,937c0-2.76-1.61-4.2-6.67-4.2h-19.19c-.34,1.2-.34,2.28-.34,3.48,0,4.92,2.64,7.2,11.38,7.2,9.19,0,14.82-2.4,14.82-6.48ZM379.45,890.58c0-6.72-3.1-9.6-7.7-9.6s-7.81,2.88-7.81,9.6,3.1,9.84,7.81,9.84,7.7-3.12,7.7-9.84Z"/><path class="cls-2" d="M411.28,921.88h3.56c1.26,0,2.87-1.68,2.87-3v-32.03c0-1.2-1.61-3.12-2.87-3.12h-3.91v-12.83h23.1c2.07,0,3.45,1.8,3.91,8.88,3.91-5.28,8.39-9.6,16.2-9.6,1.15,0,2.18.24,3.68.72v15.83h-2.76c-8.39,0-13.67,1.44-17.01,2.88v32.27h7.58v12.12h-34.36v-12.12Z"/><path class="cls-2" d="M498.62,927.16c-4.48,5.52-10.11,7.56-17.47,7.56-10.8,0-19.19-6.12-19.19-18.47,0-13.67,9.65-19.79,23.67-19.79,4.83,0,8.16.36,11.84,1.2v-5.16c0-5.52-2.87-8.04-9.54-8.04s-10.23,2.64-12.99,5.04h-8.85v-15.11c5.98-2.52,14.36-4.56,26.43-4.56,17.12,0,25.4,5.88,25.4,20.39v28.67c0,1.32,1.49,3,2.76,3h2.76v10.2c-2.87,1.8-7.01,2.88-12.07,2.88-7.35,0-11.15-2.88-12.76-7.8ZM497.47,919.13v-11.51c-2.18-.48-4.71-.72-7.12-.72-5.52,0-8.85,2.4-8.85,7.8s3.1,7.8,7.58,7.8c3.33,0,5.98-1.2,8.39-3.36Z"/><path class="cls-2" d="M532.17,921.88h3.45c1.26,0,2.76-1.68,2.76-3v-35.15h-6.55v-12.83h6.55v-3.96c0-12.95,7.58-18.35,20.57-18.35,5.17,0,8.04.84,10.57,1.8v11.51h-3.1c-4.94,0-7.58.72-7.58,5.88v3.12h31.37c1.95,0,3.1,2.04,3.1,6.36v41.62c0,1.32,1.61,3,2.87,3h3.68v12.12h-31.26v-12.12h4.14v-38.14h-13.91v38.14h4.14v12.12h-30.8v-12.12ZM572.62,856.87c0-5.88,4.48-10.2,10.34-10.2s10.11,4.32,10.11,10.2-4.37,10.2-10.11,10.2-10.34-4.32-10.34-10.2Z"/><path class="cls-2" d="M606.52,931.48v-15.59h11.15c1.61,4.08,6.43,6.36,11.49,6.36s8.73-2.04,8.73-5.76-2.3-5.16-11.15-6.36c-13.1-1.8-19.88-6.6-19.88-19.79s9.88-20.39,25.97-20.39c10.23,0,16.78,1.2,22.06,3v14.99h-10.92c-1.95-3.24-5.29-5.28-10.92-5.28s-8.39,1.92-8.39,5.16c0,3,1.95,4.68,10.92,6,14.82,2.04,21.49,6,21.49,19.67s-8.16,21.35-27.23,21.35c-11.49,0-18.16-1.68-23.33-3.36Z"/><path class="cls-2" d="M663.86,921.88h3.45c1.26,0,2.87-1.68,2.87-3v-53.14c0-1.32-1.61-3.12-2.87-3.12h-3.79v-12.59h23.9c2.07,0,3.22,1.68,3.22,4.56v45.34l12.07-11.75c2.3-2.28,1.72-4.8-.8-4.8h-2.18v-12.48h30.57v12.83h-2.76c-1.38,0-3.22.84-4.25,1.92l-11.61,11.28,13.79,21.71c1.26,2.04,2.53,3.24,4.02,3.24h1.26v12.12h-25.51v-10.8l-8.73-13.91-5.86,5.4v7.2h5.52v12.12h-32.29v-12.12Z"/><path class="cls-2" d="M282.88,1031.88h3.91c1.61,0,3.33-2.16,3.33-3.6v-52.18c0-1.44-1.72-3.48-3.33-3.48h-3.91v-12.59h37.23v12.59h-8.16v22.55h24.94v-22.55h-8.16v-12.59h37.23v12.59h-3.91c-1.61,0-3.33,2.04-3.33,3.48v52.18c0,1.44,1.72,3.6,3.33,3.6h3.91v12.12h-37.23v-12.12h8.16v-24.47h-24.94v24.47h8.16v12.12h-37.23v-12.12Z"/><path class="cls-2" d="M409.29,1037.16c-4.48,5.52-10.11,7.56-17.47,7.56-10.8,0-19.19-6.12-19.19-18.47,0-13.67,9.65-19.79,23.67-19.79,4.83,0,8.16.36,11.84,1.2v-5.16c0-5.52-2.87-8.04-9.54-8.04s-10.23,2.64-12.99,5.04h-8.85v-15.11c5.98-2.52,14.36-4.56,26.43-4.56,17.12,0,25.4,5.88,25.4,20.39v28.67c0,1.32,1.49,3,2.76,3h2.76v10.2c-2.87,1.8-7.01,2.88-12.07,2.88-7.35,0-11.15-2.88-12.76-7.8ZM408.14,1029.12v-11.51c-2.18-.48-4.71-.72-7.12-.72-5.52,0-8.85,2.4-8.85,7.8s3.1,7.8,7.58,7.8c3.33,0,5.98-1.2,8.39-3.36Z"/><path class="cls-2" d="M442.15,996.74c-.57-1.68-2.07-3-3.45-3h-1.95v-12.83h31.95v12.83h-6.78l10.23,29.99h.23l8.16-23.27c1.38-3.96,1.38-6.72-2.87-6.72h-1.49v-12.83h27.46v12.83h-1.61c-1.72,0-3.56,1.56-4.37,3.72l-18.85,46.54h-18.04l-18.62-47.26Z"/><path class="cls-2" d="M507.54,1012.81c0-20.27,12.3-32.99,31.49-32.99s28.61,9.84,28.61,31.55c0,2.52-.23,4.68-.23,5.4h-39.19c.8,10.56,5.06,15.23,13.45,15.23,6.89,0,9.77-2.52,12.53-6.12h11.15v13.07c-5.17,3.24-12.41,6-25.62,6-22.06,0-32.18-12.36-32.18-32.15ZM547.99,1005.73c-.57-9.72-3.22-13.43-8.96-13.43s-9.54,3.84-10.57,13.43h19.54Z"/></svg>